# xmcd
#
# Track frame offsets:
#	150
#	21432
#	37572
#	56895
#	66475
#	89337
#	109245
#	139152
#	156417
#	182302
#	208200
#	231975
#
# Disc length: 3360 seconds
#
# Revision: 1
# Processed by: cddbd v1.5PL3 Copyright (c) Steve Scherf et al.
# Submitted via: CDex 1.50Beta5
#
DISCID=ac0d1e0c
DTITLE=椎名恵 - 24 Hearts Disc1
DYEAR=1900
DGENRE=Pop
TTITLE0=週末に彼がいる
TTITLE1=愛は眠らない
TTITLE2=Love is all
TTITLE3=For you
TTITLE4=たぶん彼女も水の星座
TTITLE5=Wの肖像
TTITLE6=風物語
TTITLE7=The Wind
TTITLE8=一日前のBirthday
TTITLE9=彼女の選択
TTITLE10=14時間前の誕生日
TTITLE11=最初の恋、最後の恋
EXTD=
EXTT0=
EXTT1=
EXTT2=
EXTT3=
EXTT4=
EXTT5=
EXTT6=
EXTT7=
EXTT8=
EXTT9=
EXTT10=
EXTT11=
PLAYORDER=
